<svg xmlns="http://www.w3.org/2000/svg" width="40" height="40" viewBox="0 0 40 40"><title>microbit-block-icon</title><g fill="none" fill-rule="evenodd" transform="translate(3.5 6)"><path fill="#e6e7e8" fill-rule="nonzero" stroke="#7c87a5" stroke-linecap="round" stroke-linejoin="round" stroke-width=".22" d="M19.11.11V1h-5.33V.11h.44v.22h.45V.11h3.55v.22h.45V.11z"/><path fill="#231f20" fill-rule="nonzero" stroke="#231f20" stroke-width=".89" d="M30.66 1H2.22C1.24 1 .446 1.79.44 2.77V25a1.78 1.78 0 0 0 1.23 1.69 2 2 0 0 0 .55.08h28.44a2 2 0 0 0 .55-.08A1.78 1.78 0 0 0 32.44 25V2.77A1.78 1.78 0 0 0 30.66 1ZM3.11 23.54a1.11 1.11 0 1 1 0-2.22 1.11 1.11 0 0 1 0 2.22Zm6.27 0a1.11 1.11 0 1 1 0-2.22 1.11 1.11 0 0 1 0 2.22Zm7.06 0a1.11 1.11 0 1 1 0-2.22 1.11 1.11 0 0 1 0 2.22Zm7.06 0a1.11 1.11 0 1 1 0-2.22 1.11 1.11 0 0 1 0 2.22Zm6.27 0a1.11 1.11 0 1 1 0-2.22 1.11 1.11 0 0 1 0 2.22Z" opacity=".1"/><path fill="#414757" fill-rule="nonzero" d="M30.66 1H2.22C1.24 1 .446 1.79.44 2.77V25a1.78 1.78 0 0 0 1.23 1.69 2 2 0 0 0 .55.08h28.44a2 2 0 0 0 .55-.08A1.78 1.78 0 0 0 32.44 25V2.77A1.78 1.78 0 0 0 30.66 1M3.11 23.54a1.11 1.11 0 1 1 0-2.22 1.11 1.11 0 0 1 0 2.22m6.27 0a1.11 1.11 0 1 1 0-2.22 1.11 1.11 0 0 1 0 2.22m7.06 0a1.11 1.11 0 1 1 0-2.22 1.11 1.11 0 0 1 0 2.22m7.06 0a1.11 1.11 0 1 1 0-2.22 1.11 1.11 0 0 1 0 2.22m6.27 0a1.11 1.11 0 1 1 0-2.22 1.11 1.11 0 0 1 0 2.22"/><path fill="#4c97ff" fill-rule="nonzero" d="M.44 9V2.77C.446 1.79 1.24 1 2.22 1h6.22zM8.44 4.56V1H12zM12 3.67V1h2.67z"/><path fill="#4c97ff" fill-rule="nonzero" stroke="#4c97ff" stroke-linecap="round" stroke-linejoin="round" stroke-width=".22" d="M28.44 9.89V7.22h2.67zM4.45 16.11v2.67H1.78z"/><rect width="1" height="1" x=".89" y="12.56" fill="#fff" fill-rule="nonzero" rx=".44"/><rect width="1" height="1" x="31.11" y="12.56" fill="#fff" fill-rule="nonzero" rx=".44"/><path fill="#4c97ff" fill-rule="nonzero" d="M17.56 5.56a.31.31 0 1 0 0-.62.31.31 0 0 0 0 .62M15.3 4.94a.31.31 0 1 0 0 .62.31.31 0 0 0 0-.62"/><path fill="#4c97ff" fill-rule="nonzero" d="M15.3 4.33a.92.92 0 1 0 0 1.83h2.28a.92.92 0 1 0 0-1.83zm2.28 2.44H15.3a1.52 1.52 0 1 1 0-3h2.28a1.52 1.52 0 1 1 0 3"/><rect width="4.44" height="4.44" x="2.22" y="10.78" fill="#231f20" fill-rule="nonzero" stroke="#231f20" stroke-linecap="round" stroke-linejoin="round" stroke-width=".89" opacity=".25" rx=".44"/><rect width="4.44" height="4.44" x="2.22" y="10.78" fill="#e6e7e8" fill-rule="nonzero" stroke="#7c87a5" stroke-linecap="round" stroke-linejoin="round" stroke-width=".22" rx=".44"/><circle cx="4.44" cy="13" r="1" fill="#231f20" fill-rule="nonzero" stroke="#231f20" stroke-width=".67" opacity=".1"/><circle cx="4.44" cy="13" r="1" fill="#414757" fill-rule="nonzero" stroke="#414757" stroke-width=".22"/><rect width="4.44" height="4.44" x="26.22" y="10.78" fill="#231f20" fill-rule="nonzero" stroke="#231f20" stroke-linecap="round" stroke-linejoin="round" stroke-width=".89" opacity=".25" rx=".44"/><rect width="4.44" height="4.44" x="26.22" y="10.78" fill="#e6e7e8" fill-rule="nonzero" stroke="#7c87a5" stroke-linecap="round" stroke-linejoin="round" stroke-width=".22" rx=".44"/><circle cx="28.44" cy="13" r="1" fill="#231f20" fill-rule="nonzero" stroke="#231f20" stroke-width=".67" opacity=".1"/><circle cx="28.44" cy="13" r="1" fill="#414757" fill-rule="nonzero" stroke="#414757" stroke-width=".22"/><rect width="1" height="1" x=".11" y=".78" fill="#e6e7e8" fill-rule="nonzero" opacity=".5" rx=".04" transform="translate(11 8)"/><rect width="1" height="1" x=".11" y=".44" fill="#231f20" fill-rule="nonzero" opacity=".25" rx=".04" transform="translate(11 9)"/><rect width="1" height="1" x="11.11" y="9" fill="#e6e7e8" fill-rule="nonzero" rx=".04"/><rect width="1" height="1" x=".67" y=".78" fill="#e6e7e8" fill-rule="nonzero" opacity=".5" rx=".04" transform="translate(13 8)"/><rect width="1" height="1" x=".67" y=".44" fill="#231f20" fill-rule="nonzero" opacity=".25" rx=".04" transform="translate(13 9)"/><rect width="1" height="1" x="13.67" y="9" fill="#e6e7e8" fill-rule="nonzero" rx=".04"/><rect width="1" height="1" x=".22" y=".78" fill="#e6e7e8" fill-rule="nonzero" opacity=".5" rx=".04" transform="translate(16 8)"/><rect width="1" height="1" x=".22" y=".44" fill="#231f20" fill-rule="nonzero" opacity=".25" rx=".04" transform="translate(16 9)"/><rect width="1" height="1" x="16.22" y="9" fill="#e6e7e8" fill-rule="nonzero" rx=".04"/><rect width="1" height="1" x=".78" y=".78" fill="#e6e7e8" fill-rule="nonzero" opacity=".5" rx=".04" transform="translate(18 8)"/><rect width="1" height="1" x=".78" y=".44" fill="#231f20" fill-rule="nonzero" opacity=".25" rx=".04" transform="translate(18 9)"/><rect width="1" height="1" x="18.78" y="9" fill="#e6e7e8" fill-rule="nonzero" rx=".04"/><rect width="1" height="1" x=".33" y=".78" fill="#e6e7e8" fill-rule="nonzero" opacity=".5" rx=".04" transform="translate(21 8)"/><rect width="1" height="1" x=".33" y=".44" fill="#231f20" fill-rule="nonzero" opacity=".25" rx=".04" transform="translate(21 9)"/><rect width="1" height="1" x="21.33" y="9" fill="#e6e7e8" fill-rule="nonzero" rx=".04"/><rect width="1" height="1" x=".11" y=".28" fill="#e6e7e8" fill-rule="nonzero" opacity=".5" rx=".04" transform="translate(11 11)"/><rect width="1" height="1" x=".11" y=".94" fill="#231f20" fill-rule="nonzero" opacity=".25" rx=".04" transform="translate(11 11)"/><rect width="1" height="1" x="11.11" y="11.5" fill="#e6e7e8" fill-rule="nonzero" rx=".04"/><rect width="1" height="1" x=".67" y=".28" fill="#e6e7e8" fill-rule="nonzero" opacity=".5" rx=".04" transform="translate(13 11)"/><rect width="1" height="1" x=".67" y=".94" fill="#231f20" fill-rule="nonzero" opacity=".25" rx=".04" transform="translate(13 11)"/><rect width="1" height="1" x="13.67" y="11.5" fill="#e6e7e8" fill-rule="nonzero" rx=".04"/><rect width="1" height="1" x=".22" y=".28" fill="#e6e7e8" fill-rule="nonzero" opacity=".5" rx=".04" transform="translate(16 11)"/><rect width="1" height="1" x=".22" y=".94" fill="#231f20" fill-rule="nonzero" opacity=".25" rx=".04" transform="translate(16 11)"/><rect width="1" height="1" x="16.22" y="11.5" fill="#e6e7e8" fill-rule="nonzero" rx=".04"/><rect width="1" height="1" x=".78" y=".28" fill="#e6e7e8" fill-rule="nonzero" opacity=".5" rx=".04" transform="translate(18 11)"/><rect width="1" height="1" x=".78" y=".94" fill="#231f20" fill-rule="nonzero" opacity=".25" rx=".04" transform="translate(18 11)"/><rect width="1" height="1" x="18.78" y="11.5" fill="#e6e7e8" fill-rule="nonzero" rx=".04"/><rect width="1" height="1" x=".33" y=".28" fill="#e6e7e8" fill-rule="nonzero" opacity=".5" rx=".04" transform="translate(21 11)"/><rect width="1" height="1" x=".33" y=".94" fill="#231f20" fill-rule="nonzero" opacity=".25" rx=".04" transform="translate(21 11)"/><rect width="1" height="1" x="21.33" y="11.5" fill="#e6e7e8" fill-rule="nonzero" rx=".04"/><rect width="1" height="1" x=".11" y=".78" fill="#e6e7e8" fill-rule="nonzero" opacity=".5" rx=".04" transform="translate(11 13)"/><rect width="1" height="1" x=".11" y=".44" fill="#231f20" fill-rule="nonzero" opacity=".25" rx=".04" transform="translate(11 14)"/><rect width="1" height="1" x="11.11" y="14" fill="#e6e7e8" fill-rule="nonzero" rx=".04"/><rect width="1" height="1" x=".67" y=".78" fill="#e6e7e8" fill-rule="nonzero" opacity=".5" rx=".04" transform="translate(13 13)"/><rect width="1" height="1" x=".67" y=".44" fill="#231f20" fill-rule="nonzero" opacity=".25" rx=".04" transform="translate(13 14)"/><rect width="1" height="1" x="13.67" y="14" fill="#e6e7e8" fill-rule="nonzero" rx=".04"/><rect width="1" height="1" x=".22" y=".78" fill="#e6e7e8" fill-rule="nonzero" opacity=".5" rx=".04" transform="translate(16 13)"/><rect width="1" height="1" x=".22" y=".44" fill="#231f20" fill-rule="nonzero" opacity=".25" rx=".04" transform="translate(16 14)"/><rect width="1" height="1" x="16.22" y="14" fill="#e6e7e8" fill-rule="nonzero" rx=".04"/><rect width="1" height="1" x=".78" y=".78" fill="#e6e7e8" fill-rule="nonzero" opacity=".5" rx=".04" transform="translate(18 13)"/><rect width="1" height="1" x=".78" y=".44" fill="#231f20" fill-rule="nonzero" opacity=".25" rx=".04" transform="translate(18 14)"/><rect width="1" height="1" x="18.78" y="14" fill="#e6e7e8" fill-rule="nonzero" rx=".04"/><rect width="1" height="1" x=".33" y=".78" fill="#e6e7e8" fill-rule="nonzero" opacity=".5" rx=".04" transform="translate(21 13)"/><rect width="1" height="1" x=".33" y=".44" fill="#231f20" fill-rule="nonzero" opacity=".25" rx=".04" transform="translate(21 14)"/><rect width="1" height="1" x="21.33" y="14" fill="#e6e7e8" fill-rule="nonzero" rx=".04"/><rect width="1" height="1" x=".11" y=".28" fill="#e6e7e8" fill-rule="nonzero" opacity=".5" rx=".04" transform="translate(11 16)"/><rect width="1" height="1" x=".11" y=".94" fill="#231f20" fill-rule="nonzero" opacity=".25" rx=".04" transform="translate(11 16)"/><rect width="1" height="1" x="11.11" y="16.5" fill="#e6e7e8" fill-rule="nonzero" rx=".04"/><rect width="1" height="1" x=".67" y=".28" fill="#e6e7e8" fill-rule="nonzero" opacity=".5" rx=".04" transform="translate(13 16)"/><rect width="1" height="1" x=".67" y=".94" fill="#231f20" fill-rule="nonzero" opacity=".25" rx=".04" transform="translate(13 16)"/><rect width="1" height="1" x="13.67" y="16.5" fill="#e6e7e8" fill-rule="nonzero" rx=".04"/><rect width="1" height="1" x=".22" y=".28" fill="#e6e7e8" fill-rule="nonzero" opacity=".5" rx=".04" transform="translate(16 16)"/><rect width="1" height="1" x=".22" y=".94" fill="#231f20" fill-rule="nonzero" opacity=".25" rx=".04" transform="translate(16 16)"/><rect width="1" height="1" x="16.22" y="16.5" fill="#e6e7e8" fill-rule="nonzero" rx=".04"/><rect width="1" height="1" x=".78" y=".28" fill="#e6e7e8" fill-rule="nonzero" opacity=".5" rx=".04" transform="translate(18 16)"/><rect width="1" height="1" x=".78" y=".94" fill="#231f20" fill-rule="nonzero" opacity=".25" rx=".04" transform="translate(18 16)"/><rect width="1" height="1" x="18.78" y="16.5" fill="#e6e7e8" fill-rule="nonzero" rx=".04"/><rect width="1" height="1" x=".33" y=".28" fill="#e6e7e8" fill-rule="nonzero" opacity=".5" rx=".04" transform="translate(21 16)"/><rect width="1" height="1" x=".33" y=".94" fill="#231f20" fill-rule="nonzero" opacity=".25" rx=".04" transform="translate(21 16)"/><rect width="1" height="1" x="21.33" y="16.5" fill="#e6e7e8" fill-rule="nonzero" rx=".04"/><rect width="1" height="1" x=".11" y=".78" fill="#e6e7e8" fill-rule="nonzero" opacity=".5" rx=".04" transform="translate(11 18)"/><rect width="1" height="1" x=".11" y=".44" fill="#231f20" fill-rule="nonzero" opacity=".25" rx=".04" transform="translate(11 19)"/><rect width="1" height="1" x="11.11" y="19" fill="#e6e7e8" fill-rule="nonzero" rx=".04"/><rect width="1" height="1" x=".67" y=".78" fill="#e6e7e8" fill-rule="nonzero" opacity=".5" rx=".04" transform="translate(13 18)"/><rect width="1" height="1" x=".67" y=".44" fill="#231f20" fill-rule="nonzero" opacity=".25" rx=".04" transform="translate(13 19)"/><rect width="1" height="1" x="13.67" y="19" fill="#e6e7e8" fill-rule="nonzero" rx=".04"/><rect width="1" height="1" x=".22" y=".78" fill="#e6e7e8" fill-rule="nonzero" opacity=".5" rx=".04" transform="translate(16 18)"/><rect width="1" height="1" x=".22" y=".44" fill="#231f20" fill-rule="nonzero" opacity=".25" rx=".04" transform="translate(16 19)"/><rect width="1" height="1" x="16.22" y="19" fill="#e6e7e8" fill-rule="nonzero" rx=".04"/><rect width="1" height="1" x=".78" y=".78" fill="#e6e7e8" fill-rule="nonzero" opacity=".5" rx=".04" transform="translate(18 18)"/><rect width="1" height="1" x=".78" y=".44" fill="#231f20" fill-rule="nonzero" opacity=".25" rx=".04" transform="translate(18 19)"/><rect width="1" height="1" x="18.78" y="19" fill="#e6e7e8" fill-rule="nonzero" rx=".04"/><rect width="1" height="1" x=".33" y=".78" fill="#e6e7e8" fill-rule="nonzero" opacity=".5" rx=".04" transform="translate(21 18)"/><rect width="1" height="1" x=".33" y=".44" fill="#231f20" fill-rule="nonzero" opacity=".25" rx=".04" transform="translate(21 19)"/><rect width="1" height="1" x="21.33" y="19" fill="#e6e7e8" fill-rule="nonzero" rx=".04"/><path fill="#ffbf00" fill-rule="nonzero" d="M1.44 23.67v2.91a1.8 1.8 0 0 1-.53-.41v-2.5zM2.08 26.77h.12v-3.1h-.53v3.02zM2.46 23.67h1v3.1h-1z"/><path fill="#ffbf00" fill-rule="nonzero" d="M3.24 23.67h1v3.1h-1z"/><path fill="#ffbf00" fill-rule="nonzero" d="M4.03 23.67h1v3.1h-1z"/><path fill="#ffbf00" fill-rule="nonzero" d="M4.81 23.67h1v3.1h-1z"/><path fill="#ffbf00" fill-rule="nonzero" d="M5.59 23.67h1v3.1h-1z"/><path fill="#ffbf00" fill-rule="nonzero" d="M6.38 23.67h1v3.1h-1z"/><path fill="#ffbf00" fill-rule="nonzero" d="M7.16 23.67h1v3.1h-1z"/><path fill="#ffbf00" fill-rule="nonzero" d="M7.95 23.67h1v3.1h-1z"/><path fill="#ffbf00" fill-rule="nonzero" d="M8.73 23.67h1v3.1h-1z"/><path fill="#ffbf00" fill-rule="nonzero" d="M9.52 23.67h1v3.1h-1z"/><path fill="#ffbf00" fill-rule="nonzero" d="M10.3 23.67h1v3.1h-1z"/><path fill="#ffbf00" fill-rule="nonzero" d="M11.08 23.67h1v3.1h-1z"/><path fill="#ffbf00" fill-rule="nonzero" d="M11.87 23.67h1v3.1h-1z"/><path fill="#ffbf00" fill-rule="nonzero" d="M12.65 23.67h1v3.1h-1z"/><path fill="#ffbf00" fill-rule="nonzero" d="M13.44 23.67h1v3.1h-1z"/><path fill="#ffbf00" fill-rule="nonzero" d="M14.22 23.67h1v3.1h-1z"/><path fill="#ffbf00" fill-rule="nonzero" d="M15.01 23.67h1v3.1h-1z"/><path fill="#ffbf00" fill-rule="nonzero" d="M15.79 23.67h1v3.1h-1z"/><path fill="#ffbf00" fill-rule="nonzero" d="M16.58 23.67h1v3.1h-1z"/><path fill="#ffbf00" fill-rule="nonzero" d="M17.36 23.67h1v3.1h-1z"/><path fill="#ffbf00" fill-rule="nonzero" d="M18.14 23.67h1v3.1h-1z"/><path fill="#ffbf00" fill-rule="nonzero" d="M18.93 23.67h1v3.1h-1z"/><path fill="#ffbf00" fill-rule="nonzero" d="M19.71 23.67h1v3.1h-1z"/><path fill="#ffbf00" fill-rule="nonzero" d="M20.5 23.67h1v3.1h-1z"/><path fill="#ffbf00" fill-rule="nonzero" d="M21.28 23.67h1v3.1h-1z"/><path fill="#ffbf00" fill-rule="nonzero" d="M22.06 23.67h1v3.1h-1z"/><path fill="#ffbf00" fill-rule="nonzero" d="M22.85 23.67h1v3.1h-1z"/><path fill="#ffbf00" fill-rule="nonzero" d="M23.63 23.67h1v3.1h-1z"/><path fill="#ffbf00" fill-rule="nonzero" d="M24.42 23.67h1v3.1h-1z"/><path fill="#ffbf00" fill-rule="nonzero" d="M25.2 23.67h1v3.1h-1z"/><path fill="#ffbf00" fill-rule="nonzero" d="M25.99 23.67h1v3.1h-1z"/><path fill="#ffbf00" fill-rule="nonzero" d="M26.77 23.67h1v3.1h-1z"/><path fill="#ffbf00" fill-rule="nonzero" d="M27.56 23.67h1v3.1h-1z"/><path fill="#ffbf00" fill-rule="nonzero" d="M28.34 23.67h1v3.1h-1z"/><path fill="#ffbf00" fill-rule="nonzero" d="M29.12 23.67h1v3.1h-1z"/><path fill="#ffbf00" fill-rule="nonzero" d="M29.91 23.67h1v3.1h-1z"/><path fill="#ffbf00" fill-rule="nonzero" d="M30.81 26.77h-.12v-3.1h.53v3.02zM32 23.67v2.5a1.8 1.8 0 0 1-.53.41v-2.91zM3.11 23.54a1.11 1.11 0 1 1 0-2.22 1.11 1.11 0 0 1 0 2.22m-.89 3.23h2.32v-4.33a1.44 1.44 0 0 0-2.87 0v4.26zM10.44 21.44a1.44 1.44 0 0 0-2.46 1v4.34h2.88v-4.34a1.43 1.43 0 0 0-.42-1m-1 2.12a1.11 1.11 0 1 1 1.05-1.12c-.005.61-.5 1.1-1.11 1.1zM17.44 21.44a1.44 1.44 0 0 0-2.46 1v4.34h2.88v-4.34a1.43 1.43 0 0 0-.42-1m-1 2.1a1.11 1.11 0 1 1 0-2.22 1.11 1.11 0 0 1 0 2.22M24.52 21.44a1.44 1.44 0 0 0-2.46 1v4.34h2.88v-4.34a1.43 1.43 0 0 0-.42-1m-1 2.12a1.11 1.11 0 1 1 0-2.22 1.11 1.11 0 0 1 0 2.22"/><path fill="#ffbf00" fill-rule="nonzero" d="M30.79 21.44a1.44 1.44 0 0 0-2.45 1v4.34h2.32l.55-.08v-4.26a1.43 1.43 0 0 0-.42-1m-1 2.12a1.11 1.11 0 1 1 1.09-1.12c-.005.61-.5 1.1-1.11 1.1z"/><path fill="#575e75" d="m2.98 24.828.003.08a.4.4 0 0 0 .014.092q.012.044.037.075a.1.1 0 0 0 .073.03q.05 0 .075-.03A.2.2 0 0 0 3.22 25a.4.4 0 0 0 .014-.091 2 2 0 0 0-.003-.187l-.01-.06a.2.2 0 0 0-.023-.052.1.1 0 0 0-.036-.038.1.1 0 0 0-.055-.015.1.1 0 0 0-.053.015.1.1 0 0 0-.036.038.2.2 0 0 0-.022.052.4.4 0 0 0-.015.118zm-.157 0q0-.113.023-.19a.34.34 0 0 1 .062-.124.2.2 0 0 1 .09-.067.303.303 0 0 1 .22 0 .2.2 0 0 1 .09.067.3.3 0 0 1 .063.124.7.7 0 0 1 .023.19.7.7 0 0 1-.023.195.3.3 0 0 1-.062.125.2.2 0 0 1-.091.066.3.3 0 0 1-.22 0 .2.2 0 0 1-.09-.066.34.34 0 0 1-.062-.125.7.7 0 0 1-.023-.195M3.736 18.234h.206l-.1-.291H3.84zm.017-.487h.179l.296.793h-.18l-.06-.176H3.69l-.062.176h-.176zM28.82 7.798h.177a.13.13 0 0 0 .077-.022q.03-.022.03-.072a.1.1 0 0 0-.01-.046.1.1 0 0 0-.027-.027.1.1 0 0 0-.038-.014.3.3 0 0 0-.045-.004h-.163zm-.173-.32h.373q.056 0 .103.01a.2.2 0 0 1 .08.032q.034.023.051.06a.2.2 0 0 1 .019.094q0 .06-.028.1a.2.2 0 0 1-.08.065.2.2 0 0 1 .11.074.22.22 0 0 1 .035.127q0 .06-.023.104a.2.2 0 0 1-.063.072.3.3 0 0 1-.09.04.4.4 0 0 1-.103.014h-.384zm.174.657h.186a.2.2 0 0 0 .05-.005.1.1 0 0 0 .04-.017.1.1 0 0 0 .029-.032.1.1 0 0 0 .01-.05q0-.061-.034-.088a.15.15 0 0 0-.091-.026h-.19zM9.455 25.22h-.158v-.504h-.195v-.119a.4.4 0 0 0 .08-.006.2.2 0 0 0 .068-.025.2.2 0 0 0 .052-.049.2.2 0 0 0 .028-.074h.125zM16.181 24.742a.4.4 0 0 1 .016-.124.3.3 0 0 1 .053-.1.24.24 0 0 1 .09-.067.3.3 0 0 1 .123-.024.3.3 0 0 1 .102.017q.048.017.084.048a.23.23 0 0 1 .08.179.25.25 0 0 1-.068.175.4.4 0 0 1-.07.06l-.08.053a1 1 0 0 0-.078.056.4.4 0 0 0-.067.07h.368v.135h-.57q0-.067.019-.118a.3.3 0 0 1 .052-.089.5.5 0 0 1 .079-.073 3 3 0 0 1 .149-.104.4.4 0 0 0 .053-.04.2.2 0 0 0 .04-.05.12.12 0 0 0 .016-.063.12.12 0 0 0-.033-.088.12.12 0 0 0-.084-.032.1.1 0 0 0-.058.016.1.1 0 0 0-.038.042.2.2 0 0 0-.02.058.3.3 0 0 0-.007.063zM23.213 24.757a.3.3 0 0 0 .054 0 .2.2 0 0 0 .054-.013.1.1 0 0 0 .041-.03.1.1 0 0 0 .016-.053.1.1 0 0 0-.033-.077.12.12 0 0 0-.076-.027q-.06 0-.09.04a.15.15 0 0 0-.03.1h-.15a.3.3 0 0 1 .021-.11.24.24 0 0 1 .138-.14.325.325 0 0 1 .202-.006q.048.014.085.042a.2.2 0 0 1 .06.068.2.2 0 0 1 .023.092q0 .056-.027.1a.14.14 0 0 1-.081.059v.002a.17.17 0 0 1 .1.062q.037.048.037.114a.24.24 0 0 1-.18.238.359.359 0 0 1-.228-.002.244.244 0 0 1-.15-.143.3.3 0 0 1-.019-.12h.15q0 .03.01.059a.2.2 0 0 0 .025.049.12.12 0 0 0 .101.045.13.13 0 0 0 .09-.033.11.11 0 0 0 .037-.09.1.1 0 0 0-.017-.067.1.1 0 0 0-.044-.034.2.2 0 0 0-.058-.012l-.06-.002zm.742.463h-.176l-.196-.574h.165l.121.392h.002l.121-.392h.157zM29.18 25.13a.26.26 0 0 1-.218.108.4.4 0 0 1-.164-.032.35.35 0 0 1-.2-.217.495.495 0 0 1 0-.326.4.4 0 0 1 .077-.133.35.35 0 0 1 .123-.09.4.4 0 0 1 .385.04.3.3 0 0 1 .113.208h-.167a.17.17 0 0 0-.06-.1.17.17 0 0 0-.107-.033.189.189 0 0 0-.166.084.3.3 0 0 0-.038.087.43.43 0 0 0 0 .198q.012.048.037.085a.19.19 0 0 0 .167.083.2.2 0 0 0 .134-.043.2.2 0 0 0 .054-.128h-.175v-.13h.333v.429h-.11zm.27-.703h.172l.331.532h.002v-.532h.163v.793h-.174l-.33-.53h-.002v.53h-.163zm.996.646h.155q.038 0 .074-.012a.2.2 0 0 0 .063-.04.2.2 0 0 0 .044-.074.462.462 0 0 0 .005-.22.2.2 0 0 0-.038-.082.2.2 0 0 0-.07-.053.3.3 0 0 0-.109-.018h-.124zm-.174-.646h.341q.078 0 .143.025a.31.31 0 0 1 .19.195.549.549 0 0 1 .005.332.4.4 0 0 1-.067.127.3.3 0 0 1-.112.083.4.4 0 0 1-.159.031h-.341z"/></g></svg>