<svg xmlns="http://www.w3.org/2000/svg" width="116" height="95" viewBox="0 0 116 95"><title>microbit-illustration</title><g fill="none" fill-rule="evenodd"><path fill="#231f20" fill-rule="nonzero" stroke="#231f20" stroke-width="6" d="M106 4.175H10c-3.3 0-6 2.7-6 6v75c0 2.7 1.725 4.95 4.125 5.7.6.15 1.2.3 1.875.3h96c.675 0 1.275-.075 1.875-.3 2.4-.75 4.125-3 4.125-5.7v-75c0-3.3-2.625-6-6-6Zm-93 76.05c-2.1 0-3.75-1.65-3.75-3.75s1.65-3.75 3.75-3.75 3.75 1.65 3.75 3.75-1.65 3.75-3.75 3.75Zm21.225 0c-2.1 0-3.75-1.65-3.75-3.75s1.65-3.75 3.75-3.75 3.75 1.65 3.75 3.75-1.725 3.75-3.75 3.75Zm23.775 0c-2.1 0-3.75-1.65-3.75-3.75s1.65-3.75 3.75-3.75 3.75 1.65 3.75 3.75-1.65 3.75-3.75 3.75Zm23.85 0c-2.1 0-3.75-1.65-3.75-3.75s1.65-3.75 3.75-3.75 3.75 1.65 3.75 3.75-1.65 3.75-3.75 3.75Zm21.15 0c-2.1 0-3.75-1.65-3.75-3.75s1.65-3.75 3.75-3.75 3.75 1.65 3.75 3.75-1.65 3.75-3.75 3.75Z" opacity=".1"/><path fill="#414757" fill-rule="nonzero" d="M106 4.175H10c-3.3 0-6 2.7-6 6v75c0 2.7 1.725 4.95 4.125 5.7.6.15 1.2.3 1.875.3h96c.675 0 1.275-.075 1.875-.3 2.4-.75 4.125-3 4.125-5.7v-75c0-3.3-2.625-6-6-6m-93 76.05c-2.1 0-3.75-1.65-3.75-3.75s1.65-3.75 3.75-3.75 3.75 1.65 3.75 3.75-1.65 3.75-3.75 3.75m21.225 0c-2.1 0-3.75-1.65-3.75-3.75s1.65-3.75 3.75-3.75 3.75 1.65 3.75 3.75-1.725 3.75-3.75 3.75m23.775 0c-2.1 0-3.75-1.65-3.75-3.75s1.65-3.75 3.75-3.75 3.75 1.65 3.75 3.75-1.65 3.75-3.75 3.75m23.85 0c-2.1 0-3.75-1.65-3.75-3.75s1.65-3.75 3.75-3.75 3.75 1.65 3.75 3.75-1.65 3.75-3.75 3.75m21.15 0c-2.1 0-3.75-1.65-3.75-3.75s1.65-3.75 3.75-3.75 3.75 1.65 3.75 3.75-1.65 3.75-3.75 3.75"/><path fill="#4c97ff" fill-rule="nonzero" d="M4 31.175v-21c0-3.3 2.7-6 6-6h21zM31 16.175v-12h12zM43 13.175v-9h9z"/><path fill="#4c97ff" fill-rule="nonzero" stroke="#4c97ff" stroke-linecap="round" stroke-linejoin="round" stroke-width=".75" d="M98.5 34.175v-9h9zM17.5 55.175v9h-9z"/><path fill="#fff" fill-rule="nonzero" d="M7 46.175c-.825 0-1.5-.675-1.5-1.5s.675-1.5 1.5-1.5 1.5.675 1.5 1.5-.675 1.5-1.5 1.5M109 46.175c-.825 0-1.5-.675-1.5-1.5s.675-1.5 1.5-1.5 1.5.675 1.5 1.5-.675 1.5-1.5 1.5"/><g fill="#4c97ff" fill-rule="nonzero"><path d="M61.825 19.55c.6 0 1.05-.45 1.05-1.05s-.45-1.05-1.05-1.05-1.05.45-1.05 1.05.45 1.05 1.05 1.05M54.175 17.45c-.6 0-1.05.45-1.05 1.05s.45 1.05 1.05 1.05 1.05-.45 1.05-1.05-.45-1.05-1.05-1.05"/><path d="M54.175 15.425A3.04 3.04 0 0 0 51.1 18.5a3.04 3.04 0 0 0 3.075 3.075H61.9a3.04 3.04 0 0 0 3.075-3.075 3.04 3.04 0 0 0-3.075-3.075zm7.725 8.25h-7.725A5.185 5.185 0 0 1 49 18.5a5.185 5.185 0 0 1 5.175-5.175H61.9a5.185 5.185 0 0 1 5.175 5.175C67 21.35 64.75 23.675 61.9 23.675"/></g><g fill-rule="nonzero" transform="translate(10 36.5)"><path fill="#231f20" stroke="#231f20" stroke-linecap="round" stroke-linejoin="round" stroke-width="3" d="M13.5.675h-12c-.825 0-1.5.675-1.5 1.5v12c0 .825.675 1.5 1.5 1.5h12c.825 0 1.5-.675 1.5-1.5v-12c0-.825-.675-1.5-1.5-1.5" opacity=".25"/><path fill="#e6e7e8" stroke="#7c87a5" stroke-linecap="round" stroke-linejoin="round" stroke-width=".75" d="M13.5.675h-12c-.825 0-1.5.675-1.5 1.5v12c0 .825.675 1.5 1.5 1.5h12c.825 0 1.5-.675 1.5-1.5v-12c0-.825-.675-1.5-1.5-1.5"/><circle cx="7.5" cy="8.175" r="3" fill="#231f20" stroke="#231f20" stroke-width="2.25" opacity=".1"/><circle cx="7.5" cy="8.175" r="3" fill="#414757" stroke="#414757" stroke-width=".75"/></g><g fill-rule="nonzero" transform="translate(91 36.5)"><path fill="#231f20" stroke="#231f20" stroke-linecap="round" stroke-linejoin="round" stroke-width="3" d="M13.5.675h-12c-.825 0-1.5.675-1.5 1.5v12c0 .825.675 1.5 1.5 1.5h12c.825 0 1.5-.675 1.5-1.5v-12c0-.825-.675-1.5-1.5-1.5" opacity=".25"/><path fill="#e6e7e8" stroke="#7c87a5" stroke-linecap="round" stroke-linejoin="round" stroke-width=".75" d="M13.5.675h-12c-.825 0-1.5.675-1.5 1.5v12c0 .825.675 1.5 1.5 1.5h12c.825 0 1.5-.675 1.5-1.5v-12c0-.825-.675-1.5-1.5-1.5"/><circle cx="7.5" cy="8.175" r="3" fill="#231f20" stroke="#231f20" stroke-width="2.25" opacity=".1"/><circle cx="7.5" cy="8.175" r="3" fill="#414757" stroke="#414757" stroke-width=".75"/></g><g fill-rule="nonzero"><path fill="#e6e7e8" d="M41.35 31.925h-1.2a.16.16 0 0 1-.15-.15v-1.2c0-.075.075-.15.15-.15h1.2c.075 0 .15.075.15.15v1.2c0 .075 0 .15-.15.15" opacity=".5"/><path fill="#231f20" d="M41.35 34.175h-1.2a.16.16 0 0 1-.15-.15v-1.2c0-.075.075-.15.15-.15h1.2c.075 0 .15.075.15.15v1.2c0 .075 0 .15-.15.15" opacity=".25"/><path fill="#e6e7e8" d="M41.35 33.425h-1.2a.16.16 0 0 1-.15-.15v-1.95c0-.075.075-.15.15-.15h1.2c.075 0 .15.075.15.15v1.95c0 .075 0 .15-.15.15"/><path fill="#e6e7e8" d="M49.975 31.925h-1.2a.16.16 0 0 1-.15-.15v-1.2c0-.075.075-.15.15-.15h1.2c.075 0 .15.075.15.15v1.2c0 .075 0 .15-.15.15" opacity=".5"/><path fill="#231f20" d="M49.975 34.175h-1.2a.16.16 0 0 1-.15-.15v-1.2c0-.075.075-.15.15-.15h1.2c.075 0 .15.075.15.15v1.2c0 .075 0 .15-.15.15" opacity=".25"/><path fill="#e6e7e8" d="M49.975 33.425h-1.2a.16.16 0 0 1-.15-.15v-1.95c0-.075.075-.15.15-.15h1.2c.075 0 .15.075.15.15v1.95c0 .075 0 .15-.15.15"/><path fill="#e6e7e8" d="M58.6 31.925h-1.2a.16.16 0 0 1-.15-.15v-1.2c0-.075.075-.15.15-.15h1.2c.075 0 .15.075.15.15v1.2c0 .075 0 .15-.15.15" opacity=".5"/><path fill="#231f20" d="M58.6 34.175h-1.2a.16.16 0 0 1-.15-.15v-1.2c0-.075.075-.15.15-.15h1.2c.075 0 .15.075.15.15v1.2c0 .075 0 .15-.15.15" opacity=".25"/><path fill="#e6e7e8" d="M58.6 33.425h-1.2a.16.16 0 0 1-.15-.15v-1.95c0-.075.075-.15.15-.15h1.2c.075 0 .15.075.15.15v1.95c0 .075 0 .15-.15.15"/><path fill="#e6e7e8" d="M67.225 31.925h-1.2a.16.16 0 0 1-.15-.15v-1.2c0-.075.075-.15.15-.15h1.2c.075 0 .15.075.15.15v1.2c0 .075 0 .15-.15.15" opacity=".5"/><path fill="#231f20" d="M67.225 34.175h-1.2a.16.16 0 0 1-.15-.15v-1.2c0-.075.075-.15.15-.15h1.2c.075 0 .15.075.15.15v1.2c0 .075 0 .15-.15.15" opacity=".25"/><path fill="#e6e7e8" d="M67.225 33.425h-1.2a.16.16 0 0 1-.15-.15v-1.95c0-.075.075-.15.15-.15h1.2c.075 0 .15.075.15.15v1.95c0 .075 0 .15-.15.15"/><path fill="#e6e7e8" d="M75.85 31.925h-1.2a.16.16 0 0 1-.15-.15v-1.2c0-.075.075-.15.15-.15h1.2c.075 0 .15.075.15.15v1.2c0 .075 0 .15-.15.15" opacity=".5"/><path fill="#231f20" d="M75.85 34.175h-1.2a.16.16 0 0 1-.15-.15v-1.2c0-.075.075-.15.15-.15h1.2c.075 0 .15.075.15.15v1.2c0 .075 0 .15-.15.15" opacity=".25"/><path fill="#e6e7e8" d="M75.85 33.425h-1.2a.16.16 0 0 1-.15-.15v-1.95c0-.075.075-.15.15-.15h1.2c.075 0 .15.075.15.15v1.95c0 .075 0 .15-.15.15"/></g><g fill-rule="nonzero"><path fill="#e6e7e8" d="M41.35 40.325h-1.2a.16.16 0 0 1-.15-.15v-1.2c0-.075.075-.15.15-.15h1.2c.075 0 .15.075.15.15v1.2c0 .075 0 .15-.15.15" opacity=".5"/><path fill="#231f20" d="M41.35 42.575h-1.2a.16.16 0 0 1-.15-.15v-1.2c0-.075.075-.15.15-.15h1.2c.075 0 .15.075.15.15v1.2c0 .075 0 .15-.15.15" opacity=".25"/><path fill="#e6e7e8" d="M41.35 41.825h-1.2a.16.16 0 0 1-.15-.15v-1.95c0-.075.075-.15.15-.15h1.2c.075 0 .15.075.15.15v1.95c0 .075 0 .15-.15.15"/><path fill="#e6e7e8" d="M49.975 40.325h-1.2a.16.16 0 0 1-.15-.15v-1.2c0-.075.075-.15.15-.15h1.2c.075 0 .15.075.15.15v1.2c0 .075 0 .15-.15.15" opacity=".5"/><path fill="#231f20" d="M49.975 42.575h-1.2a.16.16 0 0 1-.15-.15v-1.2c0-.075.075-.15.15-.15h1.2c.075 0 .15.075.15.15v1.2c0 .075 0 .15-.15.15" opacity=".25"/><path fill="#e6e7e8" d="M49.975 41.825h-1.2a.16.16 0 0 1-.15-.15v-1.95c0-.075.075-.15.15-.15h1.2c.075 0 .15.075.15.15v1.95c0 .075 0 .15-.15.15"/><path fill="#e6e7e8" d="M58.6 40.325h-1.2a.16.16 0 0 1-.15-.15v-1.2c0-.075.075-.15.15-.15h1.2c.075 0 .15.075.15.15v1.2c0 .075 0 .15-.15.15" opacity=".5"/><path fill="#231f20" d="M58.6 42.575h-1.2a.16.16 0 0 1-.15-.15v-1.2c0-.075.075-.15.15-.15h1.2c.075 0 .15.075.15.15v1.2c0 .075 0 .15-.15.15" opacity=".25"/><path fill="#e6e7e8" d="M58.6 41.825h-1.2a.16.16 0 0 1-.15-.15v-1.95c0-.075.075-.15.15-.15h1.2c.075 0 .15.075.15.15v1.95c0 .075 0 .15-.15.15"/><path fill="#e6e7e8" d="M67.225 40.325h-1.2a.16.16 0 0 1-.15-.15v-1.2c0-.075.075-.15.15-.15h1.2c.075 0 .15.075.15.15v1.2c0 .075 0 .15-.15.15" opacity=".5"/><path fill="#231f20" d="M67.225 42.575h-1.2a.16.16 0 0 1-.15-.15v-1.2c0-.075.075-.15.15-.15h1.2c.075 0 .15.075.15.15v1.2c0 .075 0 .15-.15.15" opacity=".25"/><path fill="#e6e7e8" d="M67.225 41.825h-1.2a.16.16 0 0 1-.15-.15v-1.95c0-.075.075-.15.15-.15h1.2c.075 0 .15.075.15.15v1.95c0 .075 0 .15-.15.15"/><path fill="#e6e7e8" d="M75.85 40.325h-1.2a.16.16 0 0 1-.15-.15v-1.2c0-.075.075-.15.15-.15h1.2c.075 0 .15.075.15.15v1.2c0 .075 0 .15-.15.15" opacity=".5"/><path fill="#231f20" d="M75.85 42.575h-1.2a.16.16 0 0 1-.15-.15v-1.2c0-.075.075-.15.15-.15h1.2c.075 0 .15.075.15.15v1.2c0 .075 0 .15-.15.15" opacity=".25"/><path fill="#e6e7e8" d="M75.85 41.825h-1.2a.16.16 0 0 1-.15-.15v-1.95c0-.075.075-.15.15-.15h1.2c.075 0 .15.075.15.15v1.95c0 .075 0 .15-.15.15"/></g><g fill-rule="nonzero"><path fill="#e6e7e8" d="M41.35 48.8h-1.2a.16.16 0 0 1-.15-.15v-1.2c0-.075.075-.15.15-.15h1.2c.075 0 .15.075.15.15v1.2c0 .075 0 .15-.15.15" opacity=".5"/><path fill="#231f20" d="M41.35 51.05h-1.2a.16.16 0 0 1-.15-.15v-1.2c0-.075.075-.15.15-.15h1.2c.075 0 .15.075.15.15v1.2c0 .075 0 .15-.15.15" opacity=".25"/><path fill="#e6e7e8" d="M41.35 50.3h-1.2a.16.16 0 0 1-.15-.15V48.2c0-.075.075-.15.15-.15h1.2c.075 0 .15.075.15.15v1.95c0 .075 0 .15-.15.15"/><path fill="#e6e7e8" d="M49.975 48.8h-1.2a.16.16 0 0 1-.15-.15v-1.2c0-.075.075-.15.15-.15h1.2c.075 0 .15.075.15.15v1.2c0 .075 0 .15-.15.15" opacity=".5"/><path fill="#231f20" d="M49.975 51.05h-1.2a.16.16 0 0 1-.15-.15v-1.2c0-.075.075-.15.15-.15h1.2c.075 0 .15.075.15.15v1.2c0 .075 0 .15-.15.15" opacity=".25"/><path fill="#e6e7e8" d="M49.975 50.3h-1.2a.16.16 0 0 1-.15-.15V48.2c0-.075.075-.15.15-.15h1.2c.075 0 .15.075.15.15v1.95c0 .075 0 .15-.15.15"/><path fill="#e6e7e8" d="M58.6 48.8h-1.2a.16.16 0 0 1-.15-.15v-1.2c0-.075.075-.15.15-.15h1.2c.075 0 .15.075.15.15v1.2c0 .075 0 .15-.15.15" opacity=".5"/><path fill="#231f20" d="M58.6 51.05h-1.2a.16.16 0 0 1-.15-.15v-1.2c0-.075.075-.15.15-.15h1.2c.075 0 .15.075.15.15v1.2c0 .075 0 .15-.15.15" opacity=".25"/><path fill="#e6e7e8" d="M58.6 50.3h-1.2a.16.16 0 0 1-.15-.15V48.2c0-.075.075-.15.15-.15h1.2c.075 0 .15.075.15.15v1.95c0 .075 0 .15-.15.15"/><path fill="#e6e7e8" d="M67.225 48.8h-1.2a.16.16 0 0 1-.15-.15v-1.2c0-.075.075-.15.15-.15h1.2c.075 0 .15.075.15.15v1.2c0 .075 0 .15-.15.15" opacity=".5"/><path fill="#231f20" d="M67.225 51.05h-1.2a.16.16 0 0 1-.15-.15v-1.2c0-.075.075-.15.15-.15h1.2c.075 0 .15.075.15.15v1.2c0 .075 0 .15-.15.15" opacity=".25"/><path fill="#e6e7e8" d="M67.225 50.3h-1.2a.16.16 0 0 1-.15-.15V48.2c0-.075.075-.15.15-.15h1.2c.075 0 .15.075.15.15v1.95c0 .075 0 .15-.15.15"/><path fill="#e6e7e8" d="M75.85 48.8h-1.2a.16.16 0 0 1-.15-.15v-1.2c0-.075.075-.15.15-.15h1.2c.075 0 .15.075.15.15v1.2c0 .075 0 .15-.15.15" opacity=".5"/><path fill="#231f20" d="M75.85 51.05h-1.2a.16.16 0 0 1-.15-.15v-1.2c0-.075.075-.15.15-.15h1.2c.075 0 .15.075.15.15v1.2c0 .075 0 .15-.15.15" opacity=".25"/><path fill="#e6e7e8" d="M75.85 50.3h-1.2a.16.16 0 0 1-.15-.15V48.2c0-.075.075-.15.15-.15h1.2c.075 0 .15.075.15.15v1.95c0 .075 0 .15-.15.15"/></g><g fill-rule="nonzero"><path fill="#e6e7e8" d="M41.35 57.2h-1.2a.16.16 0 0 1-.15-.15v-1.2c0-.075.075-.15.15-.15h1.2c.075 0 .15.075.15.15v1.2c0 .075 0 .15-.15.15" opacity=".5"/><path fill="#231f20" d="M41.35 59.45h-1.2a.16.16 0 0 1-.15-.15v-1.2c0-.075.075-.15.15-.15h1.2c.075 0 .15.075.15.15v1.2c0 .075 0 .15-.15.15" opacity=".25"/><path fill="#e6e7e8" d="M41.35 58.7h-1.2a.16.16 0 0 1-.15-.15V56.6c0-.075.075-.15.15-.15h1.2c.075 0 .15.075.15.15v1.95c0 .075 0 .15-.15.15"/><path fill="#e6e7e8" d="M49.975 57.2h-1.2a.16.16 0 0 1-.15-.15v-1.2c0-.075.075-.15.15-.15h1.2c.075 0 .15.075.15.15v1.2c0 .075 0 .15-.15.15" opacity=".5"/><path fill="#231f20" d="M49.975 59.45h-1.2a.16.16 0 0 1-.15-.15v-1.2c0-.075.075-.15.15-.15h1.2c.075 0 .15.075.15.15v1.2c0 .075 0 .15-.15.15" opacity=".25"/><path fill="#e6e7e8" d="M49.975 58.7h-1.2a.16.16 0 0 1-.15-.15V56.6c0-.075.075-.15.15-.15h1.2c.075 0 .15.075.15.15v1.95c0 .075 0 .15-.15.15"/><path fill="#e6e7e8" d="M58.6 57.2h-1.2a.16.16 0 0 1-.15-.15v-1.2c0-.075.075-.15.15-.15h1.2c.075 0 .15.075.15.15v1.2c0 .075 0 .15-.15.15" opacity=".5"/><path fill="#231f20" d="M58.6 59.45h-1.2a.16.16 0 0 1-.15-.15v-1.2c0-.075.075-.15.15-.15h1.2c.075 0 .15.075.15.15v1.2c0 .075 0 .15-.15.15" opacity=".25"/><path fill="#e6e7e8" d="M58.6 58.7h-1.2a.16.16 0 0 1-.15-.15V56.6c0-.075.075-.15.15-.15h1.2c.075 0 .15.075.15.15v1.95c0 .075 0 .15-.15.15"/><path fill="#e6e7e8" d="M67.225 57.2h-1.2a.16.16 0 0 1-.15-.15v-1.2c0-.075.075-.15.15-.15h1.2c.075 0 .15.075.15.15v1.2c0 .075 0 .15-.15.15" opacity=".5"/><path fill="#231f20" d="M67.225 59.45h-1.2a.16.16 0 0 1-.15-.15v-1.2c0-.075.075-.15.15-.15h1.2c.075 0 .15.075.15.15v1.2c0 .075 0 .15-.15.15" opacity=".25"/><path fill="#e6e7e8" d="M67.225 58.7h-1.2a.16.16 0 0 1-.15-.15V56.6c0-.075.075-.15.15-.15h1.2c.075 0 .15.075.15.15v1.95c0 .075 0 .15-.15.15"/><path fill="#e6e7e8" d="M75.85 57.2h-1.2a.16.16 0 0 1-.15-.15v-1.2c0-.075.075-.15.15-.15h1.2c.075 0 .15.075.15.15v1.2c0 .075 0 .15-.15.15" opacity=".5"/><path fill="#231f20" d="M75.85 59.45h-1.2a.16.16 0 0 1-.15-.15v-1.2c0-.075.075-.15.15-.15h1.2c.075 0 .15.075.15.15v1.2c0 .075 0 .15-.15.15" opacity=".25"/><path fill="#e6e7e8" d="M75.85 58.7h-1.2a.16.16 0 0 1-.15-.15V56.6c0-.075.075-.15.15-.15h1.2c.075 0 .15.075.15.15v1.95c0 .075 0 .15-.15.15"/></g><g fill-rule="nonzero"><path fill="#e6e7e8" d="M41.35 65.675h-1.2a.16.16 0 0 1-.15-.15v-1.2c0-.075.075-.15.15-.15h1.2c.075 0 .15.075.15.15v1.2c0 .075 0 .15-.15.15" opacity=".5"/><path fill="#231f20" d="M41.35 67.925h-1.2a.16.16 0 0 1-.15-.15v-1.2c0-.075.075-.15.15-.15h1.2c.075 0 .15.075.15.15v1.2c0 .075 0 .15-.15.15" opacity=".25"/><path fill="#e6e7e8" d="M41.35 67.175h-1.2a.16.16 0 0 1-.15-.15v-1.95c0-.075.075-.15.15-.15h1.2c.075 0 .15.075.15.15v1.95c0 .075 0 .15-.15.15"/><path fill="#e6e7e8" d="M49.975 65.675h-1.2a.16.16 0 0 1-.15-.15v-1.2c0-.075.075-.15.15-.15h1.2c.075 0 .15.075.15.15v1.2c0 .075 0 .15-.15.15" opacity=".5"/><path fill="#231f20" d="M49.975 67.925h-1.2a.16.16 0 0 1-.15-.15v-1.2c0-.075.075-.15.15-.15h1.2c.075 0 .15.075.15.15v1.2c0 .075 0 .15-.15.15" opacity=".25"/><path fill="#e6e7e8" d="M49.975 67.175h-1.2a.16.16 0 0 1-.15-.15v-1.95c0-.075.075-.15.15-.15h1.2c.075 0 .15.075.15.15v1.95c0 .075 0 .15-.15.15"/><path fill="#e6e7e8" d="M58.6 65.675h-1.2a.16.16 0 0 1-.15-.15v-1.2c0-.075.075-.15.15-.15h1.2c.075 0 .15.075.15.15v1.2c0 .075 0 .15-.15.15" opacity=".5"/><path fill="#231f20" d="M58.6 67.925h-1.2a.16.16 0 0 1-.15-.15v-1.2c0-.075.075-.15.15-.15h1.2c.075 0 .15.075.15.15v1.2c0 .075 0 .15-.15.15" opacity=".25"/><path fill="#e6e7e8" d="M58.6 67.175h-1.2a.16.16 0 0 1-.15-.15v-1.95c0-.075.075-.15.15-.15h1.2c.075 0 .15.075.15.15v1.95c0 .075 0 .15-.15.15"/><path fill="#e6e7e8" d="M67.225 65.675h-1.2a.16.16 0 0 1-.15-.15v-1.2c0-.075.075-.15.15-.15h1.2c.075 0 .15.075.15.15v1.2c0 .075 0 .15-.15.15" opacity=".5"/><path fill="#231f20" d="M67.225 67.925h-1.2a.16.16 0 0 1-.15-.15v-1.2c0-.075.075-.15.15-.15h1.2c.075 0 .15.075.15.15v1.2c0 .075 0 .15-.15.15" opacity=".25"/><path fill="#e6e7e8" d="M67.225 67.175h-1.2a.16.16 0 0 1-.15-.15v-1.95c0-.075.075-.15.15-.15h1.2c.075 0 .15.075.15.15v1.95c0 .075 0 .15-.15.15"/><path fill="#e6e7e8" d="M75.85 65.675h-1.2a.16.16 0 0 1-.15-.15v-1.2c0-.075.075-.15.15-.15h1.2c.075 0 .15.075.15.15v1.2c0 .075 0 .15-.15.15" opacity=".5"/><path fill="#231f20" d="M75.85 67.925h-1.2a.16.16 0 0 1-.15-.15v-1.2c0-.075.075-.15.15-.15h1.2c.075 0 .15.075.15.15v1.2c0 .075 0 .15-.15.15" opacity=".25"/><path fill="#e6e7e8" d="M75.85 67.175h-1.2a.16.16 0 0 1-.15-.15v-1.95c0-.075.075-.15.15-.15h1.2c.075 0 .15.075.15.15v1.95c0 .075 0 .15-.15.15"/></g><g fill="#ffbf00" fill-rule="nonzero"><path d="M7.3 80.675V90.5c-.675-.375-1.275-.825-1.725-1.35v-8.475zM9.55 91.1h.375V80.675H8.2v10.2zM10.825 80.675h1.8V91.1h-1.8zM13.45 80.675h1.8V91.1h-1.8zM16.15 80.675h1.8V91.1h-1.8zM18.775 80.675h1.8V91.1h-1.8zM21.4 80.675h1.8V91.1h-1.8zM24.025 80.675h1.8V91.1h-1.8zM26.725 80.675h1.8V91.1h-1.8zM29.35 80.675h1.8V91.1h-1.8zM31.975 80.675h1.8V91.1h-1.8zM34.675 80.675h1.8V91.1h-1.8zM37.3 80.675h1.8V91.1h-1.8zM39.925 80.675h1.8V91.1h-1.8zM42.625 80.675h1.8V91.1h-1.8zM45.25 80.675h1.8V91.1h-1.8zM47.875 80.675h1.8V91.1h-1.8zM50.5 80.675h1.8V91.1h-1.8zM53.2 80.675H55V91.1h-1.8zM55.825 80.675h1.8V91.1h-1.8zM58.45 80.675h1.8V91.1h-1.8zM61.15 80.675h1.8V91.1h-1.8zM63.775 80.675h1.8V91.1h-1.8zM66.4 80.675h1.8V91.1h-1.8zM69.025 80.675h1.8V91.1h-1.8zM71.725 80.675h1.8V91.1h-1.8zM74.35 80.675h1.8V91.1h-1.8zM76.975 80.675h1.8V91.1h-1.8zM79.675 80.675h1.8V91.1h-1.8zM82.3 80.675h1.8V91.1h-1.8zM84.925 80.675h1.8V91.1h-1.8zM87.625 80.675h1.8V91.1h-1.8zM90.25 80.675h1.8V91.1h-1.8zM92.875 80.675h1.8V91.1h-1.8zM95.5 80.675h1.8V91.1h-1.8zM98.2 80.675h1.8V91.1h-1.8zM100.825 80.675h1.8V91.1h-1.8zM103.45 80.675h1.8V91.1h-1.8zM106.525 91.1h-.375V80.675h1.725v10.2zM110.5 80.675v8.475c-.525.6-1.05 1.05-1.725 1.35v-9.825z"/></g><g fill="#ffbf00" fill-rule="nonzero"><path d="M13 80.225c-2.1 0-3.75-1.65-3.75-3.75s1.65-3.75 3.75-3.75 3.75 1.65 3.75 3.75-1.65 3.75-3.75 3.75m-3 10.95h7.875V76.55c0-1.35-.525-2.55-1.425-3.45s-2.1-1.425-3.45-1.425a4.865 4.865 0 0 0-4.875 4.875v14.325zM37.675 73.1c-.9-.9-2.1-1.425-3.45-1.425a4.865 4.865 0 0 0-4.875 4.875v14.625h9.675V76.55c.075-1.35-.525-2.625-1.35-3.45m-3.45 7.125c-2.1 0-3.75-1.65-3.75-3.75s1.65-3.75 3.75-3.75 3.75 1.65 3.75 3.75-1.725 3.75-3.75 3.75M61.45 73.1c-.9-.9-2.1-1.425-3.45-1.425a4.865 4.865 0 0 0-4.875 4.875v14.625H62.8V76.55c.075-1.35-.45-2.625-1.35-3.45M58 80.225c-2.1 0-3.75-1.65-3.75-3.75s1.65-3.75 3.75-3.75 3.75 1.65 3.75 3.75-1.65 3.75-3.75 3.75M85.3 73.1c-.9-.9-2.1-1.425-3.45-1.425a4.865 4.865 0 0 0-4.875 4.875v14.625h9.675V76.55c.075-1.35-.45-2.625-1.35-3.45m-3.45 7.125c-2.1 0-3.75-1.65-3.75-3.75s1.65-3.75 3.75-3.75 3.75 1.65 3.75 3.75-1.65 3.75-3.75 3.75M106.45 73.1c-.9-.9-2.1-1.425-3.45-1.425a4.865 4.865 0 0 0-4.875 4.875v14.625H106l1.875-.3V76.55c0-1.35-.525-2.625-1.425-3.45M103 80.225c-2.1 0-3.75-1.65-3.75-3.75s1.65-3.75 3.75-3.75 3.75 1.65 3.75 3.75-1.65 3.75-3.75 3.75"/></g><path fill="#414757" d="M13.006 83.537q.51 0 .736.42.177.323.176.887 0 .535-.159.885-.23.501-.754.502a.76.76 0 0 1-.704-.41q-.192-.343-.192-.92 0-.447.116-.767.216-.597.781-.597m-.003 2.393q.256 0 .408-.227t.152-.846a2.1 2.1 0 0 0-.11-.735q-.11-.288-.426-.288a.45.45 0 0 0-.426.273q-.135.274-.135.807 0 .4.086.645.132.37.45.371M15.88 62.494l-.408-1.188-.434 1.188zm-.599-1.588h.412l.976 2.69h-.399l-.273-.805h-1.064l-.29.805h-.374zM100.252 27.403a.8.8 0 0 0 .359-.064q.201-.1.201-.363 0-.264-.214-.355a1 1 0 0 0-.359-.051h-.65v.833zm.123 1.241q.334 0 .478-.194.09-.122.09-.297 0-.293-.263-.399a1 1 0 0 0-.368-.056h-.723v.946zm-1.143-2.378h1.155q.473 0 .672.282.118.166.118.384 0 .255-.145.418a.7.7 0 0 1-.216.157.9.9 0 0 1 .31.178q.18.176.18.485a.75.75 0 0 1-.162.47q-.243.315-.775.315h-1.137zM33.35 84.302v-.252q.357-.035.498-.117.141-.08.21-.385h.26v2.611h-.351v-1.857zM57.108 86.16a1.5 1.5 0 0 1 .14-.59q.122-.252.475-.456l.352-.204q.236-.137.331-.234.15-.151.15-.348a.49.49 0 0 0-.137-.363.5.5 0 0 0-.366-.135q-.338 0-.47.256a.9.9 0 0 0-.076.381h-.335q.006-.342.126-.558.215-.381.756-.381.45 0 .659.243a.82.82 0 0 1 .208.542q0 .315-.222.539-.128.129-.46.315l-.25.139q-.18.1-.282.188a.7.7 0 0 0-.231.354h1.432v.311zM81.502 84.768h-.004zm0 0q.204.058.32.218.116.162.116.397 0 .375-.248.611-.246.237-.7.237-.466 0-.676-.256a.95.95 0 0 1-.21-.622h.345q.022.255.095.37.129.207.463.207a.6.6 0 0 0 .418-.139.46.46 0 0 0 .157-.359q0-.27-.165-.379-.166-.108-.46-.108l-.136.004v-.291a2 2 0 0 0 .16.009q.185 0 .305-.059.209-.102.209-.366a.36.36 0 0 0-.14-.302.52.52 0 0 0-.324-.106q-.33 0-.456.22a.76.76 0 0 0-.078.344h-.326q0-.294.117-.498.201-.367.708-.367.402 0 .621.179.22.178.22.517a.58.58 0 0 1-.13.392.55.55 0 0 1-.209.146zm1.001-.57.524 1.597.548-1.597h.36l-.74 1.961h-.351l-.723-1.961zM100.28 83.4q.378 0 .655.146.4.21.49.738h-.36q-.066-.294-.273-.43a.94.94 0 0 0-.522-.134.82.82 0 0 0-.629.28q-.255.28-.255.835 0 .48.21.781t.687.301q.365 0 .603-.211.24-.212.245-.684h-.843v-.302h1.182v1.44h-.235l-.088-.347q-.184.204-.327.282-.24.136-.61.136-.479 0-.822-.31-.376-.388-.376-1.066 0-.675.366-1.074.349-.381.901-.381m1.753.07h.43l1.36 2.178V83.47h.345v2.69h-.408l-1.379-2.177v2.177h-.348zm3.741 2.378q.186 0 .304-.039a.67.67 0 0 0 .348-.274q.108-.163.156-.418.027-.151.027-.282 0-.5-.198-.776-.2-.276-.64-.277h-.647v2.066zm-1.016-2.379h1.09q.555 0 .86.394.273.355.273.91 0 .429-.161.775-.285.61-.976.611h-1.086z"/><g fill="#ff4e00" fill-rule="nonzero" stroke="#ff4e00"><g stroke-width="5" opacity=".5"><path d="M49.975 33.425h-1.2a.16.16 0 0 1-.15-.15v-1.95c0-.075.075-.15.15-.15h1.2c.075 0 .15.075.15.15v1.95c0 .075 0 .15-.15.15ZM67.225 33.425h-1.2a.16.16 0 0 1-.15-.15v-1.95c0-.075.075-.15.15-.15h1.2c.075 0 .15.075.15.15v1.95c0 .075 0 .15-.15.15ZM41.35 50.3h-1.2a.16.16 0 0 1-.15-.15V48.2c0-.075.075-.15.15-.15h1.2c.075 0 .15.075.15.15v1.95c0 .075 0 .15-.15.15ZM75.85 50.3h-1.2a.16.16 0 0 1-.15-.15V48.2c0-.075.075-.15.15-.15h1.2c.075 0 .15.075.15.15v1.95c0 .075 0 .15-.15.15ZM49.975 58.7h-1.2a.16.16 0 0 1-.15-.15V56.6c0-.075.075-.15.15-.15h1.2c.075 0 .15.075.15.15v1.95c0 .075 0 .15-.15.15ZM58.6 58.7h-1.2a.16.16 0 0 1-.15-.15V56.6c0-.075.075-.15.15-.15h1.2c.075 0 .15.075.15.15v1.95c0 .075 0 .15-.15.15ZM58.6 67.175h-1.2a.16.16 0 0 1-.15-.15v-1.95c0-.075.075-.15.15-.15h1.2c.075 0 .15.075.15.15v1.95c0 .075 0 .15-.15.15ZM67.225 58.7h-1.2a.16.16 0 0 1-.15-.15V56.6c0-.075.075-.15.15-.15h1.2c.075 0 .15.075.15.15v1.95c0 .075 0 .15-.15.15ZM49.975 50.3h-1.2a.16.16 0 0 1-.15-.15V48.2c0-.075.075-.15.15-.15h1.2c.075 0 .15.075.15.15v1.95c0 .075 0 .15-.15.15ZM58.6 50.3h-1.2a.16.16 0 0 1-.15-.15V48.2c0-.075.075-.15.15-.15h1.2c.075 0 .15.075.15.15v1.95c0 .075 0 .15-.15.15ZM67.225 50.3h-1.2a.16.16 0 0 1-.15-.15V48.2c0-.075.075-.15.15-.15h1.2c.075 0 .15.075.15.15v1.95c0 .075 0 .15-.15.15ZM41.35 41.825h-1.2a.16.16 0 0 1-.15-.15v-1.95c0-.075.075-.15.15-.15h1.2c.075 0 .15.075.15.15v1.95c0 .075 0 .15-.15.15ZM75.85 41.825h-1.2a.16.16 0 0 1-.15-.15v-1.95c0-.075.075-.15.15-.15h1.2c.075 0 .15.075.15.15v1.95c0 .075 0 .15-.15.15ZM49.975 41.825h-1.2a.16.16 0 0 1-.15-.15v-1.95c0-.075.075-.15.15-.15h1.2c.075 0 .15.075.15.15v1.95c0 .075 0 .15-.15.15ZM58.6 41.825h-1.2a.16.16 0 0 1-.15-.15v-1.95c0-.075.075-.15.15-.15h1.2c.075 0 .15.075.15.15v1.95c0 .075 0 .15-.15.15ZM67.225 41.825h-1.2a.16.16 0 0 1-.15-.15v-1.95c0-.075.075-.15.15-.15h1.2c.075 0 .15.075.15.15v1.95c0 .075 0 .15-.15.15Z"/></g><g stroke-width="1.5"><path d="M49.975 33.425h-1.2a.16.16 0 0 1-.15-.15v-1.95c0-.075.075-.15.15-.15h1.2c.075 0 .15.075.15.15v1.95c0 .075 0 .15-.15.15ZM67.225 33.425h-1.2a.16.16 0 0 1-.15-.15v-1.95c0-.075.075-.15.15-.15h1.2c.075 0 .15.075.15.15v1.95c0 .075 0 .15-.15.15ZM41.35 50.3h-1.2a.16.16 0 0 1-.15-.15V48.2c0-.075.075-.15.15-.15h1.2c.075 0 .15.075.15.15v1.95c0 .075 0 .15-.15.15ZM75.85 50.3h-1.2a.16.16 0 0 1-.15-.15V48.2c0-.075.075-.15.15-.15h1.2c.075 0 .15.075.15.15v1.95c0 .075 0 .15-.15.15ZM49.975 58.7h-1.2a.16.16 0 0 1-.15-.15V56.6c0-.075.075-.15.15-.15h1.2c.075 0 .15.075.15.15v1.95c0 .075 0 .15-.15.15ZM58.6 58.7h-1.2a.16.16 0 0 1-.15-.15V56.6c0-.075.075-.15.15-.15h1.2c.075 0 .15.075.15.15v1.95c0 .075 0 .15-.15.15ZM58.6 67.175h-1.2a.16.16 0 0 1-.15-.15v-1.95c0-.075.075-.15.15-.15h1.2c.075 0 .15.075.15.15v1.95c0 .075 0 .15-.15.15ZM67.225 58.7h-1.2a.16.16 0 0 1-.15-.15V56.6c0-.075.075-.15.15-.15h1.2c.075 0 .15.075.15.15v1.95c0 .075 0 .15-.15.15ZM49.975 50.3h-1.2a.16.16 0 0 1-.15-.15V48.2c0-.075.075-.15.15-.15h1.2c.075 0 .15.075.15.15v1.95c0 .075 0 .15-.15.15ZM58.6 50.3h-1.2a.16.16 0 0 1-.15-.15V48.2c0-.075.075-.15.15-.15h1.2c.075 0 .15.075.15.15v1.95c0 .075 0 .15-.15.15ZM67.225 50.3h-1.2a.16.16 0 0 1-.15-.15V48.2c0-.075.075-.15.15-.15h1.2c.075 0 .15.075.15.15v1.95c0 .075 0 .15-.15.15ZM41.35 41.825h-1.2a.16.16 0 0 1-.15-.15v-1.95c0-.075.075-.15.15-.15h1.2c.075 0 .15.075.15.15v1.95c0 .075 0 .15-.15.15ZM75.85 41.825h-1.2a.16.16 0 0 1-.15-.15v-1.95c0-.075.075-.15.15-.15h1.2c.075 0 .15.075.15.15v1.95c0 .075 0 .15-.15.15ZM49.975 41.825h-1.2a.16.16 0 0 1-.15-.15v-1.95c0-.075.075-.15.15-.15h1.2c.075 0 .15.075.15.15v1.95c0 .075 0 .15-.15.15ZM58.6 41.825h-1.2a.16.16 0 0 1-.15-.15v-1.95c0-.075.075-.15.15-.15h1.2c.075 0 .15.075.15.15v1.95c0 .075 0 .15-.15.15ZM67.225 41.825h-1.2a.16.16 0 0 1-.15-.15v-1.95c0-.075.075-.15.15-.15h1.2c.075 0 .15.075.15.15v1.95c0 .075 0 .15-.15.15Z"/></g></g></g></svg>